grf
version=1
nRows=12
nColumns=28
inDegrees=no
endheader
time	ground_force_1_vx	ground_force_1_vy	ground_force_1_vz	ground_force_1_px	ground_force_1_py	ground_force_1_pz	ground_moment_1_mx	ground_moment_1_my	ground_moment_1_mz	ground_force_2_vx	ground_force_2_vy	ground_force_2_vz	ground_force_2_px	ground_force_2_py	ground_force_2_pz	ground_moment_2_mx	ground_moment_2_my	ground_moment_2_mz	ground_force_3_vx	ground_force_3_vy	ground_force_3_vz	ground_force_3_px	ground_force_3_py	ground_force_3_pz	ground_moment_3_mx	ground_moment_3_my	ground_moment_3_mz
      0.61000000	      0.74722892	     -0.05510638	      1.71295847	    516.96126145	  -1607.36324779	      2.55855630	     -0.09393381	     -0.33966585	   -186.11859785	     16.11581447	   -211.77578402	  -1730.97529601	    364.21426224	  -1665.44854093	      0.21179439	      0.27347684	      3.53685898	  -4238.12411052	      1.58208509	     -0.58783125	      4.81690753	    521.68593694	   -320.85222409	      0.47669208	     -0.15017888	      1.10320310	    537.19387762
      0.62000000	      0.58096900	     -0.05754231	      1.44719990	    495.36248711	  -1608.10354509	      2.57080821	     -0.05571370	     -0.20146146	   -110.39003165	    -10.48652202	   -242.47994086	  -1515.28869784	    366.55011468	  -1668.48331043	      0.20941250	      0.22131987	      2.86231609	  -3429.83728796	      1.64130611	     -0.62339319	      4.78847596	    497.61477168	   -322.20029017	      0.47273114	     -0.14272520	      1.04844891	    510.53186695
      0.63000000	      0.90965091	     -0.08559455	      1.35489380	    490.74577058	  -1511.25970641	      2.39639856	     -0.08708192	     -0.31488935	   -172.54240815	    -30.31502689	   -244.58933079	  -1272.83444175	    368.86766112	  -1672.41240158	      0.20628308	      0.11545069	      1.49311663	  -1789.16197324	      1.75962257	     -0.54736662	      4.48730078	    504.10429737	   -290.20048276	      0.40882927	     -0.13328007	      0.97906566	    476.74637481
      0.64000000	      0.59591242	      0.07309362	      1.36858065	    412.72112640	  -1522.47579848	      2.45624683	     -0.02286105	     -0.08266586	    -45.29643750	    -45.39271621	   -240.59455335	  -1003.12360415	    371.04409187	  -1675.87883852	      0.20353066	     -0.00366951	     -0.04745751	     56.86707425	      1.67227800	     -0.56887502	      4.40583572	    457.27213561	   -303.36795993	      0.42277805	     -0.10816047	      0.79453893	    386.89290430
      0.65000000	      0.44542278	     -0.12423829	      1.26567867	    364.05648815	  -1378.05454136	      2.21723947	      0.00288669	      0.01043831	      5.71963077	    -49.70377668	   -212.25780876	   -732.89503761	    372.50334461	  -1679.64771021	      0.20047957	     -0.10808530	     -1.39786051	   1675.01909991	      1.54182491	     -0.73591864	      4.32125358	    425.06096047	   -280.89350466	      0.36761858	     -0.10610784	      0.77946042	    379.55057029
      0.66000000	      0.43978731	      0.02505820	      1.41395069	    339.23788754	  -1340.66858073	      2.16153612	      0.02134799	      0.07719462	     42.29849316	    -45.24603730	   -173.85853728	   -479.03739768	    373.61805131	  -1684.77334607	      0.19627398	     -0.15593957	     -2.01675683	   2416.62609962	      1.57231713	     -0.53359044	      4.94551027	    493.00831480	   -245.03175198	      0.31296692	     -0.13016415	      0.95617636	    465.60065751
      0.67000000	      0.62948624	      0.05879649	      1.99150070	    325.78835173	  -1173.50793689	      1.86325644	      0.05863457	      0.21202338	    116.17739346	    -30.77098983	   -114.19512554	   -279.58595544	    372.45617891	  -1693.92139756	      0.18856465	     -0.15251809	     -1.97250702	   2363.60273162	      1.59505158	     -0.62461537	      4.23970031	    485.74580803	   -271.99865727	      0.36631693	     -0.13353253	      0.98092019	    477.64941988
      0.68000000	      0.56615689	      0.13377766	      1.38766283	    250.05395777	  -1273.21569803	      2.08344583	      0.00757484	      0.02739072	     15.00864116	    -17.35683248	    -58.40546527	   -150.29160846	    373.43128924	  -1711.10817706	      0.17428462	     -0.12254418	     -1.58485627	   1899.09114044	      1.70453811	     -0.72972203	      3.73338709	    438.86384518	   -271.58584482	      0.35236276	     -0.10187098	      0.74833676	    364.39521223
      0.69000000	      0.45332115	      0.04454273	      1.62232068	    281.34031588	  -1211.09848439	      1.95429193	      0.03653606	      0.13211485	     72.39182443	     -7.87780048	    -29.94361803	    -63.56673733	    371.31775545	  -1726.29861601	      0.16147130	     -0.06167420	     -0.79762857	    955.77711291	      1.36790813	     -0.62278386	      4.39624664	    428.27429518	   -311.30712065	      0.43097554	     -0.09722262	      0.71419023	    347.76789543
      0.70000000	      0.36413199	      0.16846884	      1.58476275	    286.18873248	  -1247.49177705	      2.01826259	      0.01685823	      0.06095956	     33.40255656	     -1.25152914	    -12.78243394	    -19.36723842	    380.12660760	  -1739.28769213	      0.15119989	     -0.04009697	     -0.51857159	    621.39055096	      1.50191769	     -0.61491891	      5.26047499	    440.59458710	   -322.41111457	      0.45722344	     -0.09748813	      0.71614068	    348.71764594
      0.71000000	      0.54431121	      0.37928556	      1.85424516	    272.71358381	  -1234.32666873	      2.00103719	      0.04263383	      0.15416450	     84.47384335	     -0.13299402	      1.22734194	     -0.45200296	   2701.12750397	  -4577.09497533	     -2.06727790	      0.16128520	      2.08589151	  -2499.46835056	      1.63705642	     -0.79152518	      5.08794981	    462.33058731	   -331.46440113	      0.48189219	     -0.09733385	      0.71500738	    348.16579736
      0.72000000	      0.59870752	      0.43632257	      1.34616675	    211.41140810	  -1207.91266666	      1.98377085	      0.09732599	      0.35193203	    192.83980283	      0.07945143	      4.03783549	      3.42334880	    245.88330019	  -1579.95270022	      0.27550794	     -0.05041838	     -0.65205782	    781.34355929	      1.79686335	     -0.67130641	      5.33990769	    475.79225188	   -329.39595922	      0.48140772	     -0.10393869	      0.76352599	    371.79145965
